<?xml version="1.0" encoding="UTF-8"?><svg id="Layer_1" xmlns="http://www.w3.org/2000/svg" viewBox="0 0 1250 1000"><path d="M312.06,503.84c-12.63,0-22.96-4.26-30.98-12.8-8.02-8.53-12.03-20.48-12.03-35.84,0-10.92,1.88-21.29,5.63-31.1,3.75-9.81,9-18.56,15.74-26.24,6.74-7.68,14.5-13.74,23.3-18.18,8.79-4.44,18.22-6.66,28.29-6.66,5.97,0,11.56,.94,16.77,2.82,5.2,1.88,9.38,4.52,12.54,7.94,3.16,3.42,4.65,7.42,4.48,12.03-.17,4.61-1.62,8.24-4.35,10.88-2.73,2.65-6.32,3.97-10.75,3.97-4.78,0-8.62-1.45-11.52-4.35-2.9-2.9-5.21-6.23-6.91-9.98l-1.54-4.35c-2.39-5.63-4.48-9-6.27-10.11-1.79-1.11-4.82,.13-9.09,3.71-4.61,3.93-8.92,9.22-12.93,15.87-4.01,6.66-7.21,14-9.6,22.02-2.39,8.02-3.58,16.22-3.58,24.58,0,12.8,2.77,22.23,8.32,28.29,5.54,6.06,13.01,9.09,22.4,9.09,6.14,0,12.2-1.96,18.18-5.89,5.97-3.92,11.52-9.38,16.64-16.38l3.58,2.56c-3.58,6.66-8.19,12.89-13.82,18.69-5.63,5.8-12.08,10.5-19.33,14.08-7.26,3.58-14.98,5.38-23.17,5.38Z"/><path d="M428.03,503.84c-8.88,0-16.98-1.75-24.32-5.25-7.34-3.5-13.14-8.79-17.41-15.87-4.27-7.08-6.4-16.08-6.4-27.01s1.83-21.33,5.5-31.23c3.67-9.9,8.83-18.73,15.49-26.5,6.66-7.76,14.42-13.86,23.3-18.3,8.87-4.44,18.52-6.66,28.93-6.66,9.04,0,17.11,1.75,24.19,5.25,7.08,3.5,12.71,8.75,16.9,15.74,4.18,7,6.27,15.96,6.27,26.88s-1.84,21.12-5.5,31.1c-3.67,9.98-8.79,18.86-15.36,26.62-6.57,7.77-14.25,13.91-23.04,18.43-8.79,4.52-18.3,6.78-28.54,6.78Zm3.07-5.12c5.29,0,10.11-2.43,14.46-7.3,4.35-4.86,8.15-11.35,11.39-19.46,3.24-8.1,5.72-17.06,7.42-26.88,1.7-9.81,2.56-19.58,2.56-29.31,0-14.16-1.45-23.98-4.35-29.44-2.9-5.46-6.66-8.19-11.26-8.19-5.46,0-10.5,2.39-15.1,7.17-4.61,4.78-8.62,11.18-12.03,19.2-3.42,8.02-6.06,16.9-7.94,26.62-1.88,9.73-2.82,19.46-2.82,29.18,0,14.51,1.7,24.54,5.12,30.08,3.41,5.55,7.59,8.32,12.54,8.32Z"/><path d="M543.75,503.84c-10.75,0-19.46-2.14-26.11-6.4-6.66-4.26-9.98-10.32-9.98-18.18,0-4.1,1.45-7.68,4.35-10.75,2.9-3.07,6.66-4.61,11.26-4.61,8.53,0,13.82,5.21,15.87,15.62l1.54,7.17c.85,3.58,1.92,6.49,3.2,8.7,1.28,2.22,3.8,3.33,7.55,3.33,4.26,0,8.02-1.79,11.26-5.38,3.24-3.58,4.86-8.53,4.86-14.85,0-4.78-1.5-9.38-4.48-13.82-2.99-4.44-7.98-9.3-14.98-14.59-7-5.46-12.63-11.14-16.9-17.02-4.27-5.89-6.4-12.93-6.4-21.12,0-7.17,1.83-13.7,5.5-19.58,3.67-5.89,9-10.58,16-14.08,7-3.5,15.27-5.25,24.83-5.25,11.09,0,19.84,2.22,26.24,6.66,6.4,4.44,9.6,10.16,9.6,17.15,0,3.76-1.11,6.87-3.33,9.34-2.22,2.48-5.55,3.71-9.98,3.71-8.19,0-13.74-4.95-16.64-14.85l-2.56-7.17c-.86-3.41-1.88-5.8-3.07-7.17-1.2-1.36-3.07-2.05-5.63-2.05-2.73,0-5.55,1.5-8.45,4.48-2.9,2.99-4.35,7.72-4.35,14.21,0,6.14,1.83,11.74,5.5,16.77,3.67,5.04,9.17,10.28,16.51,15.74,7.51,5.63,13.01,11.1,16.51,16.38,3.5,5.29,5.25,11.69,5.25,19.2,0,7-2.05,13.4-6.14,19.2-4.1,5.8-10.07,10.46-17.92,13.95-7.85,3.5-17.5,5.25-28.93,5.25Z"/><path d="M646.66,500l-31.23,1.79-2.05-1.79,19.71-94.21c1.54-6.82-.86-11.52-7.17-14.08l-4.61-2.3,.51-2.56,47.62-14.08,2.3,2.3-5.38,27.65c8.7-9.04,17.58-16.26,26.62-21.63,9.04-5.38,17.49-8.06,25.34-8.06,5.46,0,9.98,1.66,13.57,4.99,3.58,3.33,5.38,8.49,5.38,15.49,0,1.54-.09,3.07-.26,4.61-.17,1.54-.34,3.16-.51,4.86,8.53-9.22,17.19-16.51,25.98-21.89,8.79-5.38,17.19-8.06,25.22-8.06,5.46,0,9.94,1.66,13.44,4.99,3.5,3.33,5.25,8.49,5.25,15.49,0,3.58-.34,7.3-1.02,11.14-.68,3.84-1.54,7.81-2.56,11.9l-13.31,54.78c-.68,2.73-1.28,5.04-1.79,6.91-.51,1.88-.77,3.5-.77,4.86,0,3.58,1.45,5.38,4.35,5.38,2.56,0,5.42-1.06,8.58-3.2,3.16-2.13,6.61-5.08,10.37-8.83l2.56,2.56c-2.39,3.76-5.55,7.55-9.47,11.39-3.93,3.84-8.49,7.04-13.7,9.6-5.21,2.56-11.05,3.84-17.54,3.84-5.63,0-9.98-1.32-13.06-3.97-3.07-2.64-4.61-6.36-4.61-11.14,0-3.58,.42-7.3,1.28-11.14,.85-3.84,1.88-7.81,3.07-11.9l10.5-43.26c1.02-4.44,1.92-8.53,2.69-12.29,.77-3.75,1.15-6.82,1.15-9.22,0-5.97-2.73-8.96-8.19-8.96-7.85,0-17.75,5.89-29.7,17.66-.17,.34-.3,.73-.38,1.15-.09,.43-.13,.9-.13,1.41l-7.17,33.28c-1.88,9.05-3.67,18.09-5.38,27.14-1.71,9.05-3.5,18.18-5.38,27.39l-30.98,1.79-2.05-1.79,17.15-81.15c.68-3.41,1.28-6.61,1.79-9.6,.51-2.98,.77-5.59,.77-7.81,0-5.63-2.56-8.45-7.68-8.45-8.7,0-18.94,5.55-30.72,16.64l-7.94,35.84c-1.88,9.05-3.67,18.09-5.38,27.14-1.71,9.05-3.42,18.18-5.12,27.39Z"/><path d="M846.59,503.84c-5.29,0-9.64-1.37-13.06-4.1-3.42-2.73-5.12-6.74-5.12-12.03,0-3.07,.34-6.74,1.02-11.01,.68-4.26,1.45-8.53,2.3-12.8l12.03-57.6c1.54-7-.94-11.94-7.42-14.85l-4.1-2.05,.26-2.82,48.13-13.82,2.56,2.3-19.97,92.67c-.68,3.07-1.2,5.68-1.54,7.81-.34,2.14-.51,4.22-.51,6.27,0,3.76,1.7,5.63,5.12,5.63,2.56,0,5.12-.81,7.68-2.43,2.56-1.62,5.8-4.31,9.73-8.06l2.3,2.3c-4.27,6.32-9.69,11.99-16.26,17.02-6.57,5.03-14.3,7.55-23.17,7.55Zm23.81-145.15c-4.78,0-8.92-1.58-12.42-4.74-3.5-3.16-5.25-7.38-5.25-12.67,0-5.97,2.09-10.88,6.27-14.72,4.18-3.84,8.92-5.76,14.21-5.76s9.3,1.62,12.54,4.86c3.24,3.24,4.86,7.42,4.86,12.54,0,5.8-2.05,10.67-6.14,14.59-4.1,3.93-8.79,5.89-14.08,5.89Z"/><path d="M943.87,503.84c-12.63,0-22.96-4.26-30.98-12.8-8.02-8.53-12.03-20.48-12.03-35.84,0-10.92,1.88-21.29,5.63-31.1,3.75-9.81,9-18.56,15.74-26.24,6.74-7.68,14.5-13.74,23.3-18.18,8.79-4.44,18.22-6.66,28.29-6.66,5.97,0,11.56,.94,16.77,2.82,5.2,1.88,9.38,4.52,12.54,7.94,3.16,3.42,4.65,7.42,4.48,12.03-.17,4.61-1.62,8.24-4.35,10.88-2.73,2.65-6.32,3.97-10.75,3.97-4.78,0-8.62-1.45-11.52-4.35-2.9-2.9-5.21-6.23-6.91-9.98l-1.54-4.35c-2.39-5.63-4.48-9-6.27-10.11-1.79-1.11-4.82,.13-9.09,3.71-4.61,3.93-8.92,9.22-12.93,15.87-4.01,6.66-7.21,14-9.6,22.02-2.39,8.02-3.58,16.22-3.58,24.58,0,12.8,2.77,22.23,8.32,28.29,5.54,6.06,13.01,9.09,22.4,9.09,6.14,0,12.2-1.96,18.18-5.89,5.97-3.92,11.52-9.38,16.64-16.38l3.58,2.56c-3.58,6.66-8.19,12.89-13.82,18.69-5.63,5.8-12.08,10.5-19.33,14.08-7.26,3.58-14.98,5.38-23.17,5.38Z"/><path d="M316.42,695.07c-10.92,0-19.88-1.75-26.88-5.25-7-3.5-12.2-8.15-15.62-13.95-3.42-5.8-5.12-12.2-5.12-19.2,0-11.78,4.61-21.33,13.82-28.67,9.22-7.34,23.04-11.01,41.47-11.01h32.26v-3.07c0-8.7-2.48-15.1-7.42-19.2-4.95-4.1-11.1-6.14-18.43-6.14-6.66,0-12.46,1.58-17.41,4.74-4.95,3.16-8.02,7.81-9.22,13.95h-32c.85-9.22,3.97-17.24,9.34-24.06,5.38-6.82,12.33-12.07,20.86-15.74,8.53-3.67,18.09-5.5,28.67-5.5,18.09,0,32.34,4.52,42.75,13.57,10.41,9.05,15.62,21.85,15.62,38.4v78.08h-27.9l-3.07-20.48c-3.76,6.83-9,12.46-15.74,16.9-6.74,4.44-15.4,6.66-25.98,6.66Zm7.42-25.6c9.38,0,16.68-3.07,21.89-9.22,5.2-6.14,8.49-13.74,9.86-22.78h-27.9c-8.7,0-14.94,1.58-18.69,4.74-3.76,3.16-5.63,7.04-5.63,11.65,0,4.95,1.88,8.79,5.63,11.52,3.75,2.73,8.7,4.1,14.85,4.1Z"/><path d="M420.35,692v-126.98h29.18l3.07,23.81c4.61-8.19,10.88-14.72,18.82-19.58,7.94-4.86,17.28-7.3,28.03-7.3v34.56h-9.22c-7.17,0-13.57,1.11-19.2,3.33-5.63,2.22-10.03,6.06-13.18,11.52-3.16,5.46-4.74,13.06-4.74,22.78v57.86h-32.77Z"/><path d="M578.3,692c-13.31,0-23.98-3.24-32-9.73-8.02-6.48-12.03-18-12.03-34.56v-55.3h-21.76v-27.39h21.76l3.84-34.05h28.93v34.05h34.3v27.39h-34.3v55.55c0,6.14,1.32,10.37,3.97,12.67,2.64,2.3,7.21,3.46,13.7,3.46h15.87v27.9h-22.27Z"/></svg>