<?xml version="1.0" encoding="UTF-8"?><svg id="Layer_1" xmlns="http://www.w3.org/2000/svg" viewBox="0 0 1250 1000"><path d="M321.38,761.63c-50.52,0-91.81-17.06-123.91-51.2-32.09-34.12-48.12-81.92-48.12-143.36,0-43.69,7.5-85.16,22.53-124.41,15.02-39.25,36-74.25,62.97-104.97s58.03-54.95,93.19-72.7,72.88-26.62,113.16-26.62c23.89,0,46.25,3.77,67.08,11.27,20.81,7.52,37.55,18.09,50.17,31.75s18.59,29.69,17.92,48.12c-.69,18.44-6.5,32.94-17.42,43.52-10.92,10.59-25.25,15.88-43,15.88-19.12,0-34.48-5.8-46.08-17.41-11.61-11.59-20.83-24.91-27.64-39.94l-6.16-17.41c-9.56-22.53-17.92-36.02-25.08-40.45-7.17-4.44-19.3,.52-36.36,14.84-18.44,15.72-35.67,36.88-51.7,63.5-16.05,26.62-28.84,55.98-38.41,88.06-9.56,32.09-14.33,64.86-14.33,98.3,0,51.2,11.08,88.92,33.27,113.16s52.05,36.34,89.61,36.34c24.56,0,48.8-7.84,72.7-23.55,23.89-15.69,46.08-37.53,66.56-65.53l14.33,10.23c-14.34,26.62-32.77,51.55-55.3,74.77s-48.3,41.98-77.31,56.31-59.91,21.5-92.67,21.5Z"/><path d="M803.68,758.55c-43.69,0-79.53-7-107.52-20.98-28-14-48.81-32.59-62.47-55.81-13.66-23.2-20.47-48.8-20.47-76.8,0-47.09,18.42-85.33,55.3-114.69,36.86-29.34,92.16-44.03,165.89-44.03h129.02v-12.28c0-34.81-9.91-60.42-29.7-76.81-19.8-16.38-44.38-24.58-73.72-24.58-26.62,0-49.84,6.33-69.64,18.95s-32.08,31.23-36.86,55.81h-128c3.41-36.86,15.88-68.94,37.38-96.25s49.33-48.3,83.45-62.98c34.12-14.67,72.36-22.02,114.7-22.02,72.34,0,129.34,18.09,171,54.28,41.64,36.19,62.47,87.38,62.47,153.59v312.31h-111.62l-12.28-81.92c-15.03,27.31-36.02,49.84-62.98,67.59-26.97,17.73-61.61,26.61-103.94,26.61Zm29.7-102.39c37.55,0,66.73-12.28,87.55-36.86s33.97-54.95,39.44-91.14h-111.62c-34.81,0-59.73,6.33-74.75,18.95-15.03,12.62-22.53,28.16-22.53,46.58,0,19.81,7.5,35.17,22.53,46.09,15.02,10.92,34.81,16.38,59.39,16.38Z"/></svg>